<?xml version="1.0" encoding="utf-8"?>
<!-- Svg Vector Icons : http://www.onlinewebfonts.com/icon -->
<!DOCTYPE svg PUBLIC "-//W3C//DTD SVG 1.1//EN" "http://www.w3.org/Graphics/SVG/1.1/DTD/svg11.dtd">
<svg version="1.1" xmlns="http://www.w3.org/2000/svg" xmlns:xlink="http://www.w3.org/1999/xlink" x="0px" y="0px" viewBox="0 0 1000 1000" enable-background="new 0 0 1000 1000" xml:space="preserve">
<metadata> Svg Vector Icons : http://www.onlinewebfonts.com/icon </metadata>
<g><path d="M318.8,378.7c0,0,203.8-48.5,407.5-97C658.4,369,522.6,534,522.6,534v456l-87.3-87.3V534L318.8,378.7z"/><path d="M968.9,39.1C959.2,19.7,939.8,10,920.4,10H86c-19.4,0-38.8,9.7-48.5,29.1c-9.7,19.4-9.7,38.8,9.7,48.5l407.5,514.3v310.5l97,58.2V601.9L959.2,87.6C968.9,77.9,968.9,58.5,968.9,39.1z M668.1,301.1L377,349.6L183,116.7h640.4L668.1,301.1z"/></g>
</svg>